<svg version="1.1" id="Layer_1" xmlns="http://www.w3.org/2000/svg" xmlns:xlink="http://www.w3.org/1999/xlink" x="0px" y="0px"
	 width="100%" viewBox="0 0 1024 1024" enable-background="new 0 0 1024 1024" xml:space="preserve">
<path fill="#000000" opacity="1.000000" stroke="none" 
	d="
M792.376831,501.262177 
	C790.317200,526.352966 785.230835,550.331482 777.022400,573.650513 
	C748.181213,655.583801 691.294617,710.925781 613.088989,745.674438 
	C592.004944,755.042603 569.266174,759.081665 546.504761,762.268677 
	C536.313721,763.695679 526.012512,765.054260 515.750549,765.138916 
	C450.844177,765.674500 392.125549,746.798584 340.299194,707.547668 
	C281.435455,662.967102 244.363968,604.493408 229.869354,531.953979 
	C224.690247,506.034698 222.835434,479.692322 224.995285,453.474854 
	C231.581467,373.528381 264.346375,306.415253 325.766113,253.997894 
	C364.330505,221.085999 408.891754,201.079666 458.780823,192.811172 
	C482.678040,188.850494 506.812134,187.883209 530.908020,189.831482 
	C586.898621,194.358597 638.594055,211.528931 683.053406,246.492981 
	C739.049133,290.529541 774.906372,347.407928 788.550232,417.880280 
	C793.493958,443.415344 793.642822,469.096405 793.216919,494.878540 
	C793.184265,496.856995 792.678528,498.827637 792.376831,501.262177 
M250.222046,547.481445 
	C255.108765,565.196838 261.346558,582.457092 270.419403,598.429504 
	C317.357971,681.063477 384.951202,734.254272 481.586884,745.858765 
	C507.908875,749.019653 534.128235,748.392090 560.068481,743.351135 
	C622.840332,731.152527 673.368286,698.206543 714.041809,649.765503 
	C749.067627,608.050598 770.005981,560.042480 775.888367,505.583679 
	C778.333740,482.944580 778.451416,460.391815 775.364563,437.912872 
	C770.816223,404.791779 760.434570,373.531342 744.096252,344.257355 
	C716.568176,294.934265 677.859924,257.254303 627.047424,232.515717 
	C585.260925,212.171570 540.967590,203.613541 494.470367,206.113556 
	C474.799225,207.171219 455.446533,209.871262 436.477295,215.027634 
	C387.072540,228.457199 345.439087,254.703812 311.110992,292.462708 
	C267.602600,340.319427 244.378891,396.950592 240.519409,461.310486 
	C238.788834,490.169128 242.120483,518.758728 250.222046,547.481445 
z"/>
<path fill="#000000" opacity="1.000000" stroke="none" 
	d="
M492.000061,355.626801 
	C498.666595,355.623047 504.840759,355.432770 510.996918,355.684357 
	C514.854431,355.842041 516.766418,354.343445 517.734436,350.670868 
	C522.182983,333.793213 526.814880,316.963989 531.316650,300.100189 
	C535.218201,285.485107 539.062500,270.854553 542.876709,256.216431 
	C545.588074,245.810577 548.762939,243.900925 558.957703,246.864868 
	C562.309631,247.839340 565.682007,248.819275 568.908264,250.132721 
	C574.233215,252.300568 575.978760,255.618713 574.528870,261.232513 
	C569.748291,279.741730 564.819946,298.212830 559.930115,316.693756 
	C556.953979,327.941772 554.067932,339.216095 550.886658,350.406158 
	C549.677429,354.659760 551.133606,355.737366 555.138672,355.681976 
	C565.469849,355.539124 575.804871,355.578552 586.137329,355.666168 
	C595.555359,355.746002 601.523438,365.193848 596.038879,372.629578 
	C592.265015,377.745972 592.064758,383.083435 591.547607,388.472443 
	C589.849609,406.168610 588.784485,423.924347 587.276245,441.640198 
	C585.443970,463.161591 583.388245,484.663910 581.473938,506.178467 
	C580.935059,512.235229 580.553223,518.305908 579.977295,526.001282 
	C574.511963,520.882141 569.804688,517.059998 564.804565,513.637878 
	C563.739807,512.909119 563.706726,511.624939 563.807800,510.439148 
	C564.625977,500.837585 565.465759,491.237885 566.289062,481.636780 
	C566.431030,479.980804 566.660095,478.317291 566.616882,476.663330 
	C566.500793,472.220062 565.013428,471.475342 561.017395,473.442719 
	C545.121887,481.268646 528.864197,488.173157 510.854767,488.928650 
	C497.442200,489.491333 484.887024,485.767700 472.953583,479.745178 
	C459.871765,473.143005 447.647156,464.882416 433.998596,459.394440 
	C413.286957,451.066467 392.448242,451.338776 371.689789,459.172424 
	C364.161530,462.013367 363.809784,463.683777 364.706024,471.639252 
	C365.914398,482.365265 366.462158,493.164795 367.348236,503.928253 
	C368.574371,518.822876 369.875458,533.711365 371.099670,548.606140 
	C372.202240,562.020386 373.224762,575.441162 374.318481,588.856201 
	C375.547119,603.925781 376.829803,618.991089 378.062408,634.060364 
	C378.834198,643.496155 379.712494,652.926819 380.270538,662.375793 
	C381.556702,684.153198 404.197937,706.385498 426.006561,706.583984 
	C453.003815,706.829712 480.017914,707.150635 507.000092,706.467346 
	C525.221069,706.005859 547.491150,693.630615 552.573914,666.562927 
	C554.017212,658.877136 554.785095,651.101990 554.677002,643.256897 
	C554.650208,641.310425 554.197998,638.976807 556.509521,637.983582 
	C558.824707,636.988647 560.737854,638.386658 562.367615,639.846252 
	C567.873047,644.776855 570.169800,651.287720 571.234009,658.364380 
	C571.380920,659.341003 571.441833,660.330505 571.686584,662.721008 
	C575.976868,655.719910 575.673157,649.540283 573.902222,643.293640 
	C572.071350,636.835693 567.750305,631.909424 563.188965,627.251587 
	C556.428833,620.348267 549.399963,613.705444 542.711609,606.734802 
	C528.830811,592.268066 521.736328,574.554810 518.764832,555.032471 
	C516.515137,540.252686 512.598572,526.115967 504.357666,513.422241 
	C503.217255,511.665527 501.970795,509.665955 503.508270,507.407623 
	C504.872803,505.403381 506.950684,505.443115 508.917664,505.789917 
	C531.880249,509.838043 553.443176,517.054138 571.010132,533.315125 
	C584.770264,546.052124 592.773804,561.475037 594.470520,580.364319 
	C595.961670,596.965393 593.117065,613.132446 590.983887,629.404724 
	C590.775269,630.995789 589.705811,632.580078 591.951172,634.071228 
	C594.934082,630.236938 596.776367,625.797058 598.549377,621.425293 
	C605.738342,603.699585 609.002686,585.103821 610.770996,566.132690 
	C612.090881,551.973267 611.985291,537.855530 610.579529,523.760864 
	C609.525940,513.197388 607.675415,502.715851 606.461731,492.165375 
	C601.937683,452.837128 612.492981,419.089508 643.224731,392.705719 
	C654.428955,383.086700 667.055603,375.675110 679.571716,368.053253 
	C689.455078,362.034576 698.667664,355.246582 705.755432,345.925842 
	C707.453186,343.693237 709.473633,342.040344 712.551086,342.832947 
	C715.505554,343.593903 715.501343,346.324158 715.846008,348.471680 
	C718.785156,366.783234 719.258667,385.179413 717.489807,403.645569 
	C715.720032,422.120758 710.727539,439.542358 700.934570,455.446045 
	C691.608276,470.591827 678.528809,482.173798 665.058411,493.408020 
	C653.526550,503.025604 642.231506,512.846924 634.249329,525.889343 
	C628.371887,535.492798 625.627075,546.015137 624.413879,557.006348 
	C623.685669,563.603943 622.770752,570.225647 623.614258,578.560974 
	C625.039124,574.924561 625.960571,572.612061 626.853271,570.288574 
	C634.260376,551.009644 642.911560,532.570007 659.473145,519.069519 
	C669.531738,510.870087 680.574524,504.381592 692.724121,500.057404 
	C713.283752,492.739990 733.148254,484.403900 748.546204,468.129944 
	C750.122498,466.463989 752.113098,465.542114 754.409180,466.660919 
	C756.650513,467.753021 757.231384,469.772766 757.078613,472.113037 
	C755.682434,493.501648 750.669739,514.007935 743.324280,534.153870 
	C729.857300,571.089600 703.413635,592.428955 665.763916,601.247498 
	C655.258179,603.708252 644.631409,605.927856 634.706360,610.441833 
	C622.374634,616.050415 613.262390,624.045471 607.171570,637.039429 
	C593.579285,666.036499 575.212402,691.656860 547.261230,709.012451 
	C531.562439,718.760315 514.807861,723.403076 496.074402,722.657959 
	C473.776184,721.771240 451.406647,721.980713 429.086487,722.504333 
	C394.753998,723.309692 368.412689,696.604797 363.970856,665.836792 
	C362.075531,652.708191 361.770294,639.353210 360.645050,626.109375 
	C359.112061,608.066711 357.447815,590.035156 355.912170,571.992676 
	C354.770813,558.583008 353.793823,545.159363 352.652954,531.749634 
	C351.484131,518.011047 350.182251,504.283783 348.981964,490.547760 
	C348.171631,481.274109 347.466888,471.991302 346.660706,462.717255 
	C345.438751,448.659912 344.147034,434.608582 342.927185,420.551056 
	C341.806946,407.641266 340.694031,394.730347 339.698883,381.810608 
	C339.522034,379.514252 339.116302,377.841400 336.936310,376.441956 
	C331.807648,373.149658 330.191406,368.076996 332.034882,362.592255 
	C333.593170,357.955963 337.283447,355.648682 343.500763,355.645905 
	C392.833862,355.623871 442.166962,355.629761 492.000061,355.626801 
M442.161499,376.892944 
	C435.499023,376.916443 428.836548,376.943329 422.174072,376.962799 
	C402.020081,377.021759 381.866089,377.117981 361.712158,377.100189 
	C357.823273,377.096771 356.311096,377.698639 356.933502,382.500732 
	C358.574493,395.161743 359.238525,407.948242 360.346649,420.679932 
	C361.102997,429.370026 361.951965,438.052094 362.749329,446.628113 
	C364.780701,447.080444 365.979614,446.019653 367.299713,445.396210 
	C378.224792,440.235962 389.685913,436.656708 401.707977,435.793640 
	C428.041931,433.903046 452.142365,440.363098 473.584137,456.157623 
	C477.941071,459.367035 481.985291,463.204773 487.422882,465.061279 
	C488.670349,463.642487 489.303040,462.177307 489.730530,460.537933 
	C496.604706,434.177338 503.516266,407.826508 510.389893,381.465759 
	C511.256226,378.143311 510.068817,376.301178 506.415131,376.425720 
	C501.262268,376.601318 496.108582,376.804352 490.953766,376.862610 
	C474.992523,377.043091 459.030518,376.088989 442.161499,376.892944 
M535.507385,466.961273 
	C545.461121,462.669525 554.995728,457.588562 564.091980,451.695557 
	C566.777100,449.956024 569.342651,448.069702 569.588562,444.442627 
	C570.273682,434.337067 570.904053,424.227264 571.679321,414.128601 
	C572.479309,403.707581 573.172546,393.267395 574.421753,382.896912 
	C574.973083,378.320557 573.202515,376.624176 569.180420,376.547241 
	C562.190857,376.413544 555.197205,376.482330 548.205261,376.483002 
	C544.821350,376.483337 543.193909,378.389435 542.394531,381.529907 
	C540.714844,388.129120 538.876892,394.688538 537.063904,401.253204 
	C531.140137,422.702637 525.172424,444.139954 519.282776,465.598694 
	C517.884399,470.693634 519.401672,472.179626 524.384583,470.707001 
	C527.889648,469.671173 531.333191,468.426941 535.507385,466.961273 
M643.317322,459.915436 
	C652.540222,440.648712 666.265137,424.364136 678.524719,407.108978 
	C646.940125,434.627167 628.785461,468.012115 626.619507,501.947235 
	C631.305176,487.773499 636.009094,473.727997 643.317322,459.915436 
M685.245361,541.771851 
	C667.633728,553.771057 650.836609,566.608582 640.123718,585.740601 
	C661.143860,563.294006 687.779602,547.480896 709.657471,525.978394 
	C701.719543,531.106995 693.781555,536.235657 685.245361,541.771851 
M571.424255,584.050659 
	C566.446106,572.033752 560.442200,560.710022 549.823120,552.425598 
	C563.251587,571.295837 570.229370,593.131470 578.713440,614.276428 
	C576.605469,604.367065 575.450134,594.259644 571.424255,584.050659 
z"/>
<path fill="#000000" opacity="1.000000" stroke="none" 
	d="
M481.687317,608.213989 
	C471.265381,611.173462 462.520508,608.348694 457.578918,600.673584 
	C453.173737,593.831604 453.718140,583.884277 458.828857,577.835388 
	C464.241241,571.429504 472.844055,569.173401 481.485046,571.893738 
	C488.409027,574.073486 493.702820,581.055908 494.281158,588.771423 
	C494.897614,596.995361 490.512299,603.941589 481.687317,608.213989 
z"/>
<path fill="#000000" opacity="1.000000" stroke="none" 
	d="
M435.324463,554.775513 
	C432.293915,570.427246 416.908264,577.688293 404.819763,569.606323 
	C397.596985,564.777405 394.599213,555.385803 397.638947,547.109802 
	C400.798523,538.507507 409.615387,533.120056 418.536896,534.340393 
	C428.107239,535.649353 434.419922,542.039673 435.295319,551.340149 
	C435.388580,552.331238 435.325592,553.337097 435.324463,554.775513 
z"/>
<path fill="#000000" opacity="1.000000" stroke="none" 
	d="
M414.441925,639.099121 
	C404.051666,633.433899 400.084351,623.897217 403.866974,614.414917 
	C407.611664,605.027832 418.126953,600.121094 428.612213,602.868042 
	C437.430328,605.178345 442.374573,613.557800 441.312286,624.392334 
	C440.530945,632.361450 432.849609,639.774841 424.607849,640.308716 
	C421.316498,640.521973 417.951599,640.765259 414.441925,639.099121 
z"/>
<path fill="#000000" opacity="1.000000" stroke="none" 
	d="
M504.268005,625.271118 
	C517.018433,614.778870 532.853088,619.142944 536.406738,633.796448 
	C538.480103,642.345886 534.670410,651.291687 527.165405,655.496826 
	C519.338684,659.882263 510.835114,658.898926 504.681427,652.896973 
	C498.083923,646.462158 496.797302,637.397522 501.384827,629.144104 
	C502.102570,627.852783 503.126923,626.731873 504.268005,625.271118 
z"/>
<path fill="#000000" opacity="1.000000" stroke="none" 
	d="
M403.412445,671.799194 
	C408.190094,662.613464 416.244751,658.770081 425.930878,660.771973 
	C433.633026,662.363831 439.643921,669.279053 440.292297,677.294006 
	C441.036621,686.495544 436.056213,694.603638 427.376770,697.546875 
	C420.608887,699.841797 414.065247,698.846313 408.803009,693.839600 
	C402.551392,687.891602 399.900146,680.716309 403.412445,671.799194 
z"/>
<path fill="#000000" opacity="1.000000" stroke="none" 
	d="
M473.979523,643.674561 
	C482.259155,645.791260 487.176941,650.785156 488.232086,658.881348 
	C489.333374,667.331421 486.587555,674.401367 478.925934,678.804138 
	C471.926849,682.826111 464.904388,682.393372 458.274841,677.786255 
	C451.763336,673.261230 449.273346,664.989197 451.662567,656.426331 
	C453.707031,649.099243 459.744080,644.163513 467.616882,643.536316 
	C469.587799,643.379272 471.588623,643.597534 473.979523,643.674561 
z"/>
</svg>